<svg height="512pt" viewBox="0 -97 512.00025 512" width="512pt" xmlns="http://www.w3.org/2000/svg"><path d="m6.542969 130.679688 249.457031 111.546874 249.457031-111.546874c8.726563-3.898438 8.726563-16.285157 0-20.1875l-244.941406-109.527344c-2.875-1.285156-6.15625-1.285156-9.03125 0l-244.941406 109.527344c-8.722657 3.902343-8.722657 16.289062 0 20.1875zm0 0" fill="#636363"/><path d="m505.457031 110.492188-244.941406-109.527344c-2.875-1.285156-6.152344-1.289063-9.023437-.003906-5.898438 2.640624-15.773438 7.054687-18.160157 8.121093 30.421875 13.605469 171.285157 76.59375 226.792969 101.414063 8.726562 3.902344 8.71875 16.285156-.007812 20.183594l-23.832032 10.65625-1.242187-.917969c-78.777344-58.398438-174.390625-61.730469-178.421875-61.84375l-.621094-.019531-.621094.019531c-4.03125.113281-99.644531 3.445312-178.421875 61.84375l-8.945312 6.628906v11.121094c62.703125 28.035156 187.988281 84.058593 187.988281 84.058593l187.988281-84.058593 61.464844-27.488281c8.726563-3.898438 8.726563-16.285157.003906-20.1875zm0 0" fill="#494949"/><path d="m260.972656 316.945312c46.132813-23.707031 123.019532-31.183593 150.632813-33.171874 5.789062-.417969 10.265625-5.230469 10.265625-11.03125v-114.558594c-74.089844-54.921875-165.871094-57.503906-165.871094-57.503906s-91.785156 2.582031-165.875 57.503906v114.5625c0 5.800781 4.480469 10.613281 10.265625 11.027344 27.613281 1.988281 104.503906 9.464843 150.632813 33.171874 3.121093 1.601563 6.832031 1.601563 9.949218 0zm0 0" fill="#636363"/><path d="m388.699219 242.984375c0 11.070313-8.179688 20.441406-19.15625 21.914063-32.570313 4.367187-73.851563 12.34375-104.019531 26.582031-6.035157 2.847656-12.988282 2.863281-19.019532.011719-57.777344-27.285157-156.378906-31.574219-156.378906-31.574219v12.824219c0 5.800781 4.480469 10.613281 10.265625 11.03125 27.613281 1.984374 104.503906 9.460937 150.632813 33.167968 3.121093 1.601563 6.832031 1.601563 9.949218 0 46.132813-23.707031 123.019532-31.183594 150.632813-33.167968 5.789062-.417969 10.265625-5.230469 10.265625-11.03125v-114.558594c-10.792969-8.003906-21.964844-14.886719-33.175782-20.820313v105.621094zm0 0" fill="#494949"/><path d="m379.75 298.476562-17.59375-46.296874-17.59375 46.296874c-1.648438 4.34375 1.558594 8.992188 6.203125 8.992188h22.78125c4.648437 0 7.855469-4.648438 6.203125-8.992188zm0 0" fill="#ffd664"/><path d="m385.378906 238.910156c0 12.824219-10.394531 23.21875-23.21875 23.21875-12.828125 0-23.222656-10.394531-23.222656-23.21875 0-12.828125 10.394531-23.222656 23.222656-23.222656 12.824219 0 23.21875 10.394531 23.21875 23.222656zm0 0" fill="#ffd664"/><path d="m371.703125 217.753906c1.316406 2.914063 2.066406 6.140625 2.066406 9.542969 0 12.824219-10.398437 23.222656-23.222656 23.222656-3.402344 0-6.628906-.75-9.542969-2.066406 3.644532 8.058594 11.734375 13.675781 21.15625 13.675781 12.824219 0 23.21875-10.394531 23.21875-23.21875 0-9.421875-5.617187-17.511718-13.675781-21.15625zm0 0" fill="#f9c646"/><path d="m370.453125 50.125v169.984375c0 4.578125-3.71875 8.296875-8.296875 8.296875s-8.292969-3.714844-8.292969-8.296875v-177.394531zm0 0" fill="#ffd664"/></svg>