<svg height="512pt" viewBox="-51 0 512 512" width="512pt" xmlns="http://www.w3.org/2000/svg"><path d="m403.199219 17.5v477c0 5.519531-4.46875 10-10 10h-375.699219c-5.53125 0-10-4.480469-10-10v-477c0-5.519531 4.46875-10 10-10h375.699219c5.53125 0 10 4.480469 10 10zm0 0" fill="#e3f4ff"/><path d="m403.199219 17.5v477c0 5.519531-4.46875 10-10 10h-25.027344c5.527344 0 10-4.480469 10-10v-477c0-5.519531-4.472656-10-10-10h25.027344c5.53125 0 10 4.480469 10 10zm0 0" fill="#bddff4"/><path d="m403.199219 17.5v70.5h-395.699219v-70.5c0-5.519531 4.46875-10 10-10h375.699219c5.53125 0 10 4.480469 10 10zm0 0" fill="#fc3e81"/><path d="m403.199219 17.5v70.5h-25.027344v-70.5c0-5.519531-4.472656-10-10-10h25.027344c5.53125 0 10 4.480469 10 10zm0 0" fill="#f01054"/><path d="m223.984375 428.96875c0 10.292969-8.34375 18.636719-18.632813 18.636719-10.292968 0-18.636718-8.34375-18.636718-18.636719s8.34375-18.632812 18.636718-18.632812c10.289063 0 18.632813 8.339843 18.632813 18.632812zm0 0" fill="#fc3e81"/><path d="m353.429688 139.421875v86.40625c0 4.183594-3.390626 7.570313-7.570313 7.570313h-122.050781c-4.179688 0-7.570313-3.386719-7.570313-7.570313v-86.40625c0-4.183594 3.390625-7.570313 7.570313-7.570313h122.050781c4.179687 0 7.570313 3.386719 7.570313 7.570313zm0 0" fill="#1685fb"/><path d="m353.429688 158.328125v67.5c0 4.183594-3.390626 7.570313-7.570313 7.570313h-100.179687v-39.398438c0-2.761719 2.238281-5 5-5h29.851562v-11.5c0-2.761719 2.238281-5 5-5h10.488281c2.761719 0 5 2.238281 5 5v26.28125c0 2.757812 2.238281 5 5 5h11.671875c2.757813 0 5-2.242188 5-5v-40.453125c0-2.757813 2.238282-5 5-5zm0 0" fill="#364ec6"/><path d="m403.199219 258.832031c-4.140625 0-7.5 3.355469-7.5 7.5v228.167969c0 1.378906-1.121094 2.5-2.5 2.5h-53.519531c-4.140626 0-7.5 3.359375-7.5 7.5s3.359374 7.5 7.5 7.5h53.519531c9.648437 0 17.5-7.851562 17.5-17.5v-228.167969c0-4.144531-3.355469-7.5-7.5-7.5zm0 0"/><path d="m393.199219 0h-375.699219c-9.648438 0-17.5 7.851562-17.5 17.5v477c0 9.648438 7.851562 17.5 17.5 17.5h289.519531c4.140625 0 7.5-3.359375 7.5-7.5s-3.359375-7.5-7.5-7.5h-289.519531c-1.378906 0-2.5-1.121094-2.5-2.5v-399h380.699219v65.167969c0 4.144531 3.359375 7.5 7.5 7.5 4.144531 0 7.5-3.355469 7.5-7.5v-143.167969c0-9.648438-7.847657-17.5-17.5-17.5zm-378.199219 80.5v-63c0-1.378906 1.121094-2.5 2.5-2.5h375.699219c1.378906 0 2.5 1.121094 2.5 2.5v63zm0 0"/><path d="m403.199219 185.832031c-4.140625 0-7.5 3.355469-7.5 7.5v40.339844c0 4.140625 3.359375 7.5 7.5 7.5 4.144531 0 7.5-3.359375 7.5-7.5v-40.339844c0-4.144531-3.355469-7.5-7.5-7.5zm0 0"/><path d="m93.316406 306.851562c-2.929687-2.929687-7.679687-2.929687-10.605468 0l-5.703126 5.703126-5.707031-5.703126c-2.929687-2.929687-7.675781-2.929687-10.605469 0-2.929687 2.929688-2.929687 7.675782 0 10.605469l5.703126 5.703125-5.703126 5.703125c-2.929687 2.929688-2.929687 7.679688 0 10.609375 1.464844 1.460938 3.382813 2.195313 5.304688 2.195313 1.917969 0 3.839844-.730469 5.300781-2.195313l5.707031-5.707031 5.703126 5.707031c1.464843 1.460938 3.382812 2.195313 5.300781 2.195313 1.921875 0 3.839843-.730469 5.304687-2.195313 2.929688-2.929687 2.929688-7.679687 0-10.609375l-5.703125-5.703125 5.703125-5.703125c2.929688-2.929687 2.929688-7.679687 0-10.605469zm0 0"/><path d="m157.488281 306.851562c-2.929687-2.929687-7.679687-2.929687-10.605469 0l-5.703124 5.703126-5.707032-5.703126c-2.925781-2.929687-7.675781-2.929687-10.605468 0-2.929688 2.929688-2.929688 7.675782 0 10.605469l5.703124 5.703125-5.703124 5.703125c-2.929688 2.929688-2.929688 7.679688 0 10.609375 1.464843 1.460938 3.386718 2.195313 5.304687 2.195313s3.839844-.730469 5.300781-2.195313l5.707032-5.707031 5.703124 5.707031c1.464844 1.460938 3.382813 2.195313 5.300782 2.195313 1.921875 0 3.839844-.730469 5.304687-2.195313 2.929688-2.929687 2.929688-7.679687 0-10.609375l-5.703125-5.703125 5.703125-5.703125c2.929688-2.929687 2.929688-7.679687 0-10.605469zm0 0"/><path d="m189.039062 339.472656c1.464844 1.464844 3.382813 2.195313 5.304688 2.195313 1.917969 0 3.835938-.730469 5.300781-2.195313l5.707031-5.703125 5.703126 5.703125c1.464843 1.464844 3.382812 2.195313 5.304687 2.195313 1.917969 0 3.835937-.730469 5.300781-2.195313 2.929688-2.929687 2.929688-7.679687 0-10.605468l-5.703125-5.707032 5.703125-5.703125c2.929688-2.929687 2.929688-7.675781 0-10.605469-2.929687-2.929687-7.675781-2.929687-10.605468 0l-5.703126 5.703126-5.707031-5.703126c-2.929687-2.929687-7.675781-2.929687-10.605469 0-2.929687 2.929688-2.929687 7.675782 0 10.605469l5.703126 5.703125-5.703126 5.703125c-2.929687 2.929688-2.929687 7.679688 0 10.609375zm0 0"/><path d="m285.832031 306.851562c-2.929687-2.929687-7.675781-2.929687-10.605469 0l-5.703124 5.703126-5.703126-5.703126c-2.929687-2.929687-7.679687-2.929687-10.605468 0-2.929688 2.929688-2.929688 7.675782 0 10.605469l5.703125 5.703125-5.703125 5.703125c-2.929688 2.929688-2.929688 7.679688 0 10.609375 1.460937 1.460938 3.382812 2.195313 5.300781 2.195313s3.839844-.730469 5.304687-2.195313l5.703126-5.707031 5.703124 5.707031c1.464844 1.460938 3.382813 2.195313 5.304688 2.195313 1.917969 0 3.835938-.730469 5.300781-2.195313 2.929688-2.929687 2.929688-7.679687 0-10.609375l-5.703125-5.703125 5.703125-5.703125c2.929688-2.929687 2.929688-7.679687 0-10.605469zm0 0"/><path d="m350.007812 306.851562c-2.929687-2.929687-7.679687-2.929687-10.609374 0l-5.703126 5.703126-5.703124-5.703126c-2.929688-2.929687-7.679688-2.929687-10.605469 0-2.929688 2.929688-2.929688 7.675782 0 10.605469l5.703125 5.703125-5.703125 5.703125c-2.929688 2.929688-2.929688 7.679688 0 10.609375 1.464843 1.460938 3.382812 2.195313 5.300781 2.195313 1.921875 0 3.839844-.730469 5.304688-2.195313l5.703124-5.707031 5.703126 5.707031c1.464843 1.460938 3.386718 2.195313 5.304687 2.195313s3.839844-.730469 5.304687-2.195313c2.925782-2.929687 2.925782-7.679687 0-10.609375l-5.707031-5.703125 5.707031-5.703125c2.925782-2.929687 2.925782-7.679687 0-10.605469zm0 0"/><path d="m93.316406 359.753906c-2.929687-2.929687-7.679687-2.929687-10.605468 0l-5.703126 5.703125-5.707031-5.703125c-2.929687-2.929687-7.675781-2.929687-10.605469 0-2.929687 2.929688-2.929687 7.679688 0 10.605469l5.703126 5.703125-5.703126 5.707031c-2.929687 2.925781-2.929687 7.675781 0 10.605469 1.464844 1.464844 3.382813 2.195312 5.304688 2.195312 1.917969 0 3.839844-.730468 5.300781-2.195312l5.707031-5.703125 5.703126 5.703125c1.464843 1.464844 3.382812 2.195312 5.300781 2.195312 1.921875 0 3.839843-.730468 5.304687-2.195312 2.929688-2.929688 2.929688-7.679688 0-10.605469l-5.703125-5.707031 5.703125-5.703125c2.929688-2.925781 2.929688-7.675781 0-10.605469zm0 0"/><path d="m157.488281 359.753906c-2.929687-2.929687-7.679687-2.929687-10.605469 0l-5.703124 5.703125-5.707032-5.703125c-2.925781-2.929687-7.675781-2.929687-10.605468 0-2.929688 2.929688-2.929688 7.679688 0 10.605469l5.703124 5.703125-5.703124 5.707031c-2.929688 2.925781-2.929688 7.675781 0 10.605469 1.464843 1.464844 3.386718 2.195312 5.304687 2.195312s3.839844-.730468 5.300781-2.195312l5.707032-5.703125 5.703124 5.703125c1.464844 1.464844 3.382813 2.195312 5.300782 2.195312 1.921875 0 3.839844-.730468 5.304687-2.195312 2.929688-2.929688 2.929688-7.679688 0-10.605469l-5.703125-5.707031 5.703125-5.703125c2.929688-2.925781 2.929688-7.675781 0-10.605469zm0 0"/><path d="m189.039062 392.375c1.464844 1.464844 3.382813 2.199219 5.304688 2.199219 1.917969 0 3.835938-.734375 5.300781-2.199219l5.707031-5.703125 5.703126 5.703125c1.464843 1.464844 3.382812 2.199219 5.304687 2.199219 1.917969 0 3.835937-.734375 5.300781-2.199219 2.929688-2.929688 2.929688-7.675781 0-10.605469l-5.703125-5.703125 5.703125-5.703125c2.929688-2.929687 2.929688-7.679687 0-10.605469-2.925781-2.933593-7.675781-2.929687-10.605468 0l-5.703126 5.703126-5.707031-5.707032c-2.929687-2.929687-7.675781-2.929687-10.605469 0-2.929687 2.929688-2.929687 7.679688 0 10.605469l5.703126 5.707031-5.703126 5.703125c-2.929687 2.929688-2.929687 7.675781 0 10.605469zm0 0"/><path d="m285.832031 359.753906c-2.929687-2.929687-7.675781-2.929687-10.605469 0l-5.703124 5.703125-5.703126-5.703125c-2.929687-2.929687-7.679687-2.929687-10.605468 0-2.929688 2.929688-2.929688 7.679688 0 10.605469l5.703125 5.703125-5.703125 5.707031c-2.929688 2.925781-2.929688 7.675781 0 10.605469 1.460937 1.464844 3.382812 2.195312 5.300781 2.195312s3.839844-.730468 5.304687-2.195312l5.703126-5.703125 5.703124 5.703125c1.464844 1.464844 3.382813 2.195312 5.304688 2.195312 1.917969 0 3.835938-.730468 5.300781-2.195312 2.929688-2.929688 2.929688-7.679688 0-10.605469l-5.703125-5.707031 5.703125-5.703125c2.929688-2.925781 2.929688-7.675781 0-10.605469zm0 0"/><path d="m339.398438 392.375c1.464843 1.464844 3.382812 2.199219 5.304687 2.199219 1.917969 0 3.835937-.734375 5.300781-2.199219 2.929688-2.929688 2.929688-7.675781 0-10.605469l-5.703125-5.703125 5.703125-5.703125c2.929688-2.929687 2.929688-7.679687 0-10.605469-2.929687-2.929687-7.675781-2.929687-10.605468 0l-5.703126 5.703126-5.703124-5.703126c-2.929688-2.929687-7.679688-2.929687-10.605469 0-2.929688 2.925782-2.929688 7.675782 0 10.605469l5.703125 5.703125-5.703125 5.703125c-2.929688 2.929688-2.929688 7.679688 0 10.605469 1.460937 1.464844 3.382812 2.199219 5.300781 2.199219s3.839844-.734375 5.304688-2.199219l5.703124-5.703125zm0 0"/><path d="m93.316406 412.65625c-2.929687-2.925781-7.679687-2.925781-10.605468 0l-5.703126 5.707031-5.707031-5.707031c-2.925781-2.925781-7.675781-2.925781-10.605469 0-2.929687 2.929688-2.929687 7.679688 0 10.609375l5.703126 5.703125-5.703126 5.707031c-2.929687 2.925781-2.929687 7.675781 0 10.605469 1.464844 1.460938 3.382813 2.195312 5.304688 2.195312 1.917969 0 3.839844-.730468 5.300781-2.195312l5.707031-5.707031 5.703126 5.707031c1.464843 1.464844 3.382812 2.195312 5.300781 2.195312 1.921875 0 3.839843-.730468 5.304687-2.195312 2.929688-2.929688 2.929688-7.679688 0-10.605469l-5.703125-5.707031 5.703125-5.703125c2.929688-2.929687 2.929688-7.679687 0-10.609375zm0 0"/><path d="m157.488281 412.65625c-2.929687-2.925781-7.679687-2.925781-10.605469 0l-5.703124 5.707031-5.707032-5.707031c-2.925781-2.925781-7.675781-2.925781-10.605468 0-2.929688 2.929688-2.929688 7.679688 0 10.609375l5.703124 5.703125-5.703124 5.707031c-2.929688 2.925781-2.929688 7.675781 0 10.605469 1.464843 1.460938 3.386718 2.195312 5.304687 2.195312s3.839844-.730468 5.300781-2.195312l5.707032-5.707031 5.703124 5.707031c1.464844 1.464844 3.382813 2.195312 5.300782 2.195312 1.921875 0 3.839844-.730468 5.304687-2.195312 2.929688-2.929688 2.929688-7.679688 0-10.605469l-5.703125-5.707031 5.703125-5.703125c2.929688-2.929687 2.929688-7.679687 0-10.609375zm0 0"/><path d="m205.351562 455.105469c14.410157 0 26.132813-11.726563 26.132813-26.136719s-11.722656-26.136719-26.132813-26.136719c-14.414062 0-26.136718 11.726563-26.136718 26.136719s11.722656 26.136719 26.136718 26.136719zm0-37.273438c6.136719 0 11.132813 4.996094 11.132813 11.136719s-4.996094 11.136719-11.132813 11.136719c-6.140624 0-11.136718-4.996094-11.136718-11.136719s4.996094-11.136719 11.136718-11.136719zm0 0"/><path d="m179.269531 199.191406c0-9.699218-4.554687-18.347656-11.632812-23.9375 4.035156-4.492187 6.496093-10.425781 6.496093-16.925781 0-13.984375-11.378906-25.363281-25.363281-25.363281s-25.363281 11.378906-25.363281 25.363281c0 6.5 2.460938 12.433594 6.496094 16.925781-7.078125 5.589844-11.632813 14.238282-11.632813 23.9375 0 16.816406 13.683594 30.5 30.5 30.5 16.820313 0 30.5-13.683594 30.5-30.5zm-40.863281-40.863281c0-5.714844 4.648438-10.363281 10.363281-10.363281 5.714844 0 10.363281 4.648437 10.363281 10.363281s-4.648437 10.363281-10.363281 10.363281c-5.714843 0-10.363281-4.648437-10.363281-10.363281zm10.363281 56.363281c-8.546875 0-15.5-6.953125-15.5-15.5s6.953125-15.5 15.5-15.5 15.5 6.953125 15.5 15.5-6.953125 15.5-15.5 15.5zm0 0"/><path d="m85.136719 207.078125c16.574219-16.976563 24.632812-30.621094 24.632812-41.71875 0-16.542969-13.457031-30-30-30s-30 13.457031-30 30c0 4.140625 3.359375 7.5 7.5 7.5s7.5-3.359375 7.5-7.5c0-8.273437 6.726563-15 15-15 8.269531 0 15 6.726563 15 15 0 12.289063-24.636719 37.183594-42.132812 50.933594-2.515625 1.976562-3.5 5.328125-2.453125 8.351562 1.042968 3.019531 3.886718 5.046875 7.085937 5.046875h51c4.140625 0 7.5-3.359375 7.5-7.5s-3.359375-7.5-7.5-7.5h-30.921875c2.496094-2.339844 5.136719-4.902344 7.789063-7.613281zm0 0"/><path d="m360.929688 225.832031v-86.417969c0-8.308593-6.757813-15.066406-15.066407-15.066406h-122.050781c-8.308594 0-15.070312 6.757813-15.070312 15.066406v86.417969c0 8.308594 6.761718 15.070313 15.070312 15.070313h122.046875c8.3125 0 15.070313-6.761719 15.070313-15.070313zm-15.066407.070313-92.683593-.054688v-29.347656h27.351562c4.140625 0 7.5-3.359375 7.5-7.5v-9h5.488281v23.78125c0 6.890625 5.609375 12.5 12.5 12.5h11.671875c6.890625 0 12.5-5.609375 12.5-12.5v-37.953125h15.738282v60.003906c0 .039063-.03125.070313-.066407.070313zm-122.121093-.070313.070312-86.484375 122.117188.066406v11.414063h-18.238282c-6.894531 0-12.5 5.609375-12.5 12.5v37.953125h-6.671875v-23.78125c0-6.894531-5.605469-12.5-12.5-12.5h-10.488281c-6.894531 0-12.5 5.605469-12.5 12.5v4h-22.351562c-6.894532 0-12.5 5.605469-12.5 12.5v31.839844zm0 0"/><path d="m57.269531 263.5h19.734375c4.144532 0 7.5-3.359375 7.5-7.5s-3.355468-7.5-7.5-7.5h-19.734375c-4.140625 0-7.5 3.359375-7.5 7.5s3.359375 7.5 7.5 7.5zm0 0"/><path d="m133.269531 275.320312c0-4.140624-3.359375-7.5-7.5-7.5h-68.5c-4.140625 0-7.5 3.359376-7.5 7.5 0 4.144532 3.359375 7.5 7.5 7.5h68.5c4.140625 0 7.5-3.355468 7.5-7.5zm0 0"/><path d="m360.605469 275.320312c0-4.140624-3.359375-7.5-7.5-7.5h-68.5c-4.140625 0-7.5 3.359376-7.5 7.5 0 4.144532 3.359375 7.5 7.5 7.5h68.5c4.140625 0 7.5-3.355468 7.5-7.5zm0 0"/><path d="m46.992188 22.75h-.078126c-4.140624 0-7.460937 3.359375-7.460937 7.5s3.398437 7.5 7.539063 7.5c4.144531 0 7.5-3.359375 7.5-7.5s-3.355469-7.5-7.5-7.5zm0 0"/><path d="m75.792969 22.75h-.078125c-4.140625 0-7.460938 3.359375-7.460938 7.5s3.398438 7.5 7.539063 7.5 7.5-3.359375 7.5-7.5-3.359375-7.5-7.5-7.5zm0 0"/><path d="m104.59375 22.75h-.078125c-4.144531 0-7.460937 3.359375-7.460937 7.5s3.394531 7.5 7.539062 7.5c4.140625 0 7.5-3.359375 7.5-7.5s-3.359375-7.5-7.5-7.5zm0 0"/><path d="m133.390625 22.75h-.078125c-4.140625 0-7.460938 3.359375-7.460938 7.5s3.398438 7.5 7.539063 7.5c4.144531 0 7.5-3.359375 7.5-7.5s-3.355469-7.5-7.5-7.5zm0 0"/><path d="m162.191406 22.75h-.078125c-4.144531 0-7.460937 3.359375-7.460937 7.5s3.394531 7.5 7.539062 7.5c4.140625 0 7.5-3.359375 7.5-7.5s-3.359375-7.5-7.5-7.5zm0 0"/><path d="m190.988281 22.75h-.078125c-4.140625 0-7.460937 3.359375-7.460937 7.5s3.398437 7.5 7.539062 7.5c4.144531 0 7.5-3.359375 7.5-7.5s-3.355469-7.5-7.5-7.5zm0 0"/><path d="m219.789062 22.75h-.078124c-4.144532 0-7.460938 3.359375-7.460938 7.5s3.394531 7.5 7.539062 7.5c4.140626 0 7.5-3.359375 7.5-7.5s-3.359374-7.5-7.5-7.5zm0 0"/><path d="m248.589844 22.75h-.078125c-4.144531 0-7.460938 3.359375-7.460938 7.5s3.394531 7.5 7.539063 7.5c4.140625 0 7.5-3.359375 7.5-7.5s-3.359375-7.5-7.5-7.5zm0 0"/><path d="m277.386719 22.75h-.078125c-4.140625 0-7.460938 3.359375-7.460938 7.5s3.398438 7.5 7.539063 7.5 7.5-3.359375 7.5-7.5-3.359375-7.5-7.5-7.5zm0 0"/><path d="m306.183594 22.75h-.078125c-4.140625 0-7.460938 3.359375-7.460938 7.5s3.398438 7.5 7.539063 7.5c4.144531 0 7.5-3.359375 7.5-7.5s-3.355469-7.5-7.5-7.5zm0 0"/><path d="m334.984375 22.75h-.078125c-4.140625 0-7.460938 3.359375-7.460938 7.5s3.398438 7.5 7.539063 7.5c4.144531 0 7.5-3.359375 7.5-7.5s-3.355469-7.5-7.5-7.5zm0 0"/><path d="m363.785156 22.75h-.078125c-4.144531 0-7.460937 3.359375-7.460937 7.5s3.394531 7.5 7.539062 7.5c4.140625 0 7.5-3.359375 7.5-7.5s-3.359375-7.5-7.5-7.5zm0 0"/></svg>