<svg width="43" height="43" viewBox="0 0 43 43" fill="none" xmlns="http://www.w3.org/2000/svg">
<path d="M31.3143 30.6296V12.3705C31.3143 11.9923 31.0077 11.6858 30.6295 11.6858H17.4831C17.1049 11.6858 16.7983 11.9923 16.7983 12.3705V30.6296C16.7983 31.0077 17.1049 31.3143 17.4831 31.3143H30.6295C31.0076 31.3143 31.3143 31.0077 31.3143 30.6296Z" fill="#CDD4D5"/>
<path d="M42.7368 22.0395C42.9028 21.9098 43 21.7108 43 21.5C43 21.2892 42.9028 21.0901 42.7368 20.9605L31.051 11.8309C30.8448 11.6698 30.5646 11.6403 30.3294 11.7552V31.2449C30.5647 31.3597 30.8448 31.3303 31.051 31.1691L42.7368 22.0395Z" fill="#FF8C29"/>
<path d="M28.758 21.5C28.758 18.9075 26.6488 16.7983 24.0563 16.7983C21.4638 16.7983 19.3546 18.9075 19.3546 21.5C19.3546 24.0926 21.4638 26.2017 24.0563 26.2017C26.6488 26.2017 28.758 24.0926 28.758 21.5Z" fill="#4ACFD9"/>
<path d="M9.76868 21.4999C9.76868 19.5115 8.15089 17.8938 6.16255 17.8938C4.4082 17.8938 0.947794 20.4427 0.271887 20.9539C0.100727 21.0833 0.000114441 21.2854 0.000114441 21.5C0.000114441 21.7147 0.100727 21.9167 0.271887 22.0462C0.94771 22.5572 4.4082 25.1062 6.16255 25.1062C8.15097 25.106 9.76868 23.4883 9.76868 21.4999Z" fill="#FD6A33"/>
<path d="M6.17905 22.5954C6.77551 22.5864 7.258 22.0984 7.258 21.5C7.258 20.9015 6.77551 20.4135 6.17905 20.4045C5.80893 20.4472 4.9307 20.8865 3.92734 21.5005C4.92944 22.1136 5.80767 22.5526 6.17905 22.5954Z" fill="#FFD1A9"/>
<path d="M6.16255 17.8938C4.4082 17.8938 0.947794 20.4427 0.271887 20.9539C0.100727 21.0833 0.000114441 21.2854 0.000114441 21.5H9.76868C9.76868 19.5115 8.15097 17.8938 6.16255 17.8938Z" fill="#F0353D"/>
<path d="M6.17895 20.4045C5.80891 20.4472 4.93103 20.8863 3.928 21.4999H7.25781C7.25781 20.9014 6.77532 20.4134 6.17895 20.4045Z" fill="#FF8C29"/>
<path d="M18.1081 12.65C18.2183 12.4035 18.1733 12.1152 17.9933 11.914L11.7853 4.9755C11.5961 4.76395 11.2958 4.69113 11.0306 4.79242C10.7653 4.89379 10.5902 5.14818 10.5902 5.43204V12.3705C10.5902 12.7487 10.8967 13.0552 11.2749 13.0552H17.483C17.753 13.0552 17.9979 12.8966 18.1081 12.65Z" fill="#FF8C29"/>
<path d="M11.7851 38.0245L17.9932 31.0861C18.1732 30.8849 18.2181 30.5967 18.1079 30.35C17.9977 30.1035 17.7528 29.9448 17.4828 29.9448H11.2748C10.8966 29.9448 10.59 30.2514 10.59 30.6295V37.568C10.59 37.8519 10.7652 38.1063 11.0304 38.2076C11.2957 38.3089 11.5959 38.2361 11.7851 38.0245Z" fill="#FD6A33"/>
<path d="M18.1677 31.3143V11.6858H11.275C10.8968 11.6858 10.5902 11.9923 10.5902 12.3705V30.6296C10.5902 31.0077 10.8968 31.3143 11.275 31.3143H18.1677Z" fill="#FF8C29"/>
<path d="M31.3143 12.3705C31.3143 11.9923 31.0077 11.6858 30.6295 11.6858H17.4831C17.1049 11.6858 16.7983 11.9923 16.7983 12.3705V21.5H31.3143V12.3705Z" fill="#9BAAAB"/>
<path d="M42.7368 20.9605L31.051 11.8309C30.8448 11.6698 30.5646 11.6403 30.3294 11.7552V21.5H43C43 21.2892 42.9028 21.0901 42.7368 20.9605Z" fill="#FD6A33"/>
<path d="M24.0563 16.7983C21.4638 16.7983 19.3546 18.9075 19.3546 21.5H28.758C28.758 18.9075 26.6488 16.7983 24.0563 16.7983Z" fill="#0295AA"/>
<path d="M18.1677 11.6858H11.275C10.8968 11.6858 10.5902 11.9923 10.5902 12.3705V21.5H18.1677V11.6858Z" fill="#FD6A33"/>
<path d="M23.0063 20.0392C23.0063 19.864 23.0731 19.6887 23.2068 19.555C23.4742 19.2876 23.9078 19.2876 24.1751 19.555L26.001 21.3809C26.2684 21.6484 26.2684 22.0819 26.001 22.3492C25.7336 22.6166 25.3001 22.6166 25.0327 22.3492L23.2068 20.5233C23.0731 20.3897 23.0063 20.2144 23.0063 20.0392Z" fill="white"/>
<path d="M21.9108 21.8651C21.9108 21.69 21.9776 21.5147 22.1113 21.381C22.3788 21.1136 22.8123 21.1136 23.0796 21.381L24.1752 22.4765C24.4426 22.744 24.4426 23.1775 24.1752 23.4448C23.9078 23.7122 23.4742 23.7122 23.2069 23.4448L22.1113 22.3492C21.9776 22.2156 21.9108 22.0403 21.9108 21.8651Z" fill="white"/>
<path d="M20.0849 28.4384C20.0849 28.0602 20.3915 27.7537 20.7696 27.7537H27.3429C27.7211 27.7537 28.0276 28.0602 28.0276 28.4384C28.0276 28.8166 27.7211 29.1231 27.3429 29.1231H20.7696C20.3915 29.1231 20.0849 28.8165 20.0849 28.4384Z" fill="white"/>
</svg>
