<svg width="38" height="38" viewBox="0 0 38 38" fill="none" xmlns="http://www.w3.org/2000/svg">
<g clip-path="url(#clip0)">
<path d="M0.00146484 14.5469C0.00146484 13.932 0.500122 13.4336 1.11475 13.4336H4.23193C4.84685 13.4336 5.34521 13.932 5.34521 14.5469C5.34521 15.1618 4.84685 15.6602 4.23193 15.6602H1.11475C0.500122 15.6602 0.00146484 15.1618 0.00146484 14.5469Z" fill="#2D2D55"/>
<path d="M0.00146484 23.4531C0.00146484 22.8382 0.500122 22.3398 1.11475 22.3398H4.23193C4.84685 22.3398 5.34521 22.8382 5.34521 23.4531C5.34521 24.068 4.84685 24.5664 4.23193 24.5664H1.11475C0.500122 24.5664 0.00146484 24.068 0.00146484 23.4531Z" fill="#0A0A48"/>
<path d="M6.9038 1.11329C6.9038 0.876718 6.97918 0.643335 7.12385 0.449091C7.33462 0.165262 7.66803 -0.00144021 8.02144 9.37636e-06C11.5897 0.0136355 14.7971 1.75111 16.3922 4.5346C16.6027 4.90193 16.8068 5.25649 17.0025 5.59686C17.7487 6.89424 18.3929 8.01477 18.8252 8.84219C19.3937 9.93054 19.7384 10.6948 19.3653 11.3726C19.1696 11.7283 18.7959 11.9492 18.39 11.9492H10.9809C10.4909 11.9492 10.0587 11.6292 9.91604 11.1607L6.95222 1.438C6.91975 1.33131 6.9038 1.22201 6.9038 1.11329ZM10.9809 10.8359V10.8368V10.8359Z" fill="#FE0050"/>
<path d="M6.9038 36.8867C6.9038 36.778 6.91975 36.6687 6.95222 36.562L9.91604 26.8394C10.0587 26.3708 10.4909 26.0508 10.9809 26.0508H18.39C18.7959 26.0508 19.1696 26.2717 19.3653 26.6274C19.7384 27.3053 19.3934 28.0695 18.8252 29.1578C18.3929 29.9852 17.7487 31.1058 17.0025 32.4032C16.8068 32.7435 16.603 33.0981 16.3922 33.4654C14.7971 36.2489 11.5897 37.9864 8.02143 38C7.66803 38.0014 7.33462 37.8347 7.12385 37.5509C6.97918 37.3567 6.9038 37.1233 6.9038 36.8867Z" fill="#E10555"/>
<path d="M3.11864 24.9375V13.0625C3.11864 11.2209 4.61693 9.72266 6.45848 9.72266H20.3272C23.4438 9.72266 26.4839 10.3274 29.3631 11.5201C32.2422 12.7126 34.8196 14.4347 37.0233 16.6383C38.3256 17.9406 38.3256 20.0594 37.0233 21.3617C34.8196 23.5653 32.2425 25.2874 29.3631 26.4799C26.4839 27.6726 23.4438 28.2773 20.3272 28.2773H6.45848C4.61693 28.2773 3.11864 26.7791 3.11864 24.9375Z" fill="#D9E7F3"/>
<path d="M29.3631 26.4799C32.2422 25.2874 34.8196 23.5653 37.0233 21.3617C37.6744 20.7105 38 19.8553 38 19H3.11864V24.9375C3.11864 26.7791 4.61693 28.2773 6.45848 28.2773H20.3272C23.4438 28.2773 26.4839 27.6726 29.3631 26.4799Z" fill="#C8D4DF"/>
<path d="M30.5796 24.0805V13.9194C30.5796 13.5205 30.7932 13.1523 31.1391 12.9537C31.4853 12.7551 31.9112 12.7572 32.2553 12.9587C33.9974 13.9783 35.6015 15.2162 37.0233 16.6383C38.3256 17.9403 38.3256 20.0593 37.0233 21.3616C35.6015 22.7834 33.9974 24.0213 32.2553 25.041C31.9112 25.2424 31.4853 25.2445 31.1391 25.0462C30.7932 24.8479 30.5796 24.4794 30.5796 24.0805Z" fill="#FE0050"/>
<path d="M19.4468 19C19.4468 16.7491 21.2782 14.918 23.5288 14.918C25.7797 14.918 27.6108 16.7491 27.6108 19C27.6108 21.2509 25.7797 23.082 23.5288 23.082C21.2782 23.082 19.4468 21.2509 19.4468 19Z" fill="#006EFF"/>
<path d="M0.00146103 19C0.00146103 18.3851 0.500118 17.8867 1.11474 17.8867H7.05225C7.66716 17.8867 8.16553 18.3851 8.16553 19C8.16553 19.6149 7.66716 20.1133 7.05225 20.1133H1.11474C0.500118 20.1133 0.00146103 19.6149 0.00146103 19Z" fill="#FE0050"/>
<path d="M27.6108 19H19.4468C19.4468 21.2509 21.2782 23.082 23.5288 23.082C25.7797 23.082 27.6108 21.2509 27.6108 19Z" fill="#005ADC"/>
<path d="M32.2553 25.0413C33.9974 24.0214 35.6015 22.7834 37.0233 21.3617C37.6744 20.7105 38 19.8553 38 19H30.5796V24.0805C30.5796 24.4794 30.7932 24.8479 31.1391 25.0462C31.4853 25.2445 31.9112 25.2428 32.2553 25.0413Z" fill="#E10555"/>
<path d="M8.16553 19H0.00146103C0.00146103 19.6149 0.500118 20.1133 1.11474 20.1133H7.05225C7.66716 20.1133 8.16553 19.6149 8.16553 19Z" fill="#E10555"/>
<path d="M25.3843 19C25.3843 17.9769 24.5519 17.1445 23.5288 17.1445C22.5057 17.1445 21.6733 17.9769 21.6733 19C21.6733 20.0231 22.5057 20.8555 23.5288 20.8555C24.5519 20.8555 25.3843 20.0231 25.3843 19Z" fill="#FFD500"/>
<path d="M25.3843 19H21.6733C21.6733 20.0231 22.5057 20.8555 23.5288 20.8555C24.5519 20.8555 25.3843 20.0231 25.3843 19Z" fill="#FAB400"/>
</g>
<defs>
<clipPath id="clip0">
<rect width="38" height="38" fill="white" transform="translate(38) rotate(90)"/>
</clipPath>
</defs>
</svg>
