<?xml version="1.0" encoding="UTF-8"?>
<!DOCTYPE svg PUBLIC "-//W3C//DTD SVG 1.1//EN" "http://www.w3.org/Graphics/SVG/1.1/DTD/svg11.dtd">
<!-- Creator: CorelDRAW -->
<svg xmlns="http://www.w3.org/2000/svg" xml:space="preserve" width="210mm" height="210mm" version="1.1" style="shape-rendering:geometricPrecision; text-rendering:geometricPrecision; image-rendering:optimizeQuality; fill-rule:evenodd; clip-rule:evenodd"
viewBox="0 0 21000 21000"
 xmlns:xlink="http://www.w3.org/1999/xlink">
 <defs>
  <style type="text/css">
   <![CDATA[
    .fil0 {fill:#41046F}
    .fil1 {fill:white}
   ]]>
  </style>
 </defs>
 <g id="Layer_x0020_1">
  <metadata id="CorelCorpID_0Corel-Layer"/>
  <path class="fil0" d="M21000 10500.25c0,-5799.49 -4701.02,-10500.13 -10499.83,-10500.13 -5799.11,0.01 -10500.17,4700.65 -10500.17,10500.13 0,5798.6 4701.06,10499.62 10500.17,10499.62 5798.81,0 10499.83,-4701.02 10499.83,-10499.62z"/>
  <path class="fil1" d="M5850.02 7347.32c0,-588.96 189.07,-1185.74 567.29,-1790.23 378.09,-604.49 930.01,-1105.11 1655.38,-1501.95 725.41,-396.71 1571.71,-595.18 2538.88,-595.18 898.9,0 1692.59,165.96 2380.79,497.53 688.21,331.75 1219.73,782.81 1594.94,1353.14 375.04,570.5 562.63,1190.4 562.63,1859.98 0,527.03 -106.96,989.01 -320.87,1385.69 -213.91,396.84 -468.2,739.38 -762.62,1027.61 -294.54,288.32 -823.06,773.49 -1585.63,1455.48 -210.82,192.24 -379.87,361.25 -506.84,506.89 -127.14,145.73 -221.74,279.01 -283.66,399.85 -62.05,120.92 -110.17,241.8 -144.16,362.73 -34.16,120.84 -85.29,333.31 -153.43,637.04 -117.83,644.87 -486.78,967.22 -1106.68,967.22 -322.43,0 -593.74,-105.35 -813.74,-316.21 -220.13,-210.74 -330.14,-523.86 -330.14,-939.28 0,-520.81 80.5,-971.87 241.8,-1353.14 161.17,-381.35 375.04,-716.14 641.69,-1004.38 266.48,-288.32 626.16,-630.82 1078.79,-1027.66 396.71,-347.15 683.55,-609.14 860.26,-785.85 176.71,-176.71 325.48,-373.44 446.4,-590.56 120.88,-216.96 181.36,-452.5 181.36,-706.79 0,-495.97 -184.54,-914.44 -553.36,-1255.49 -368.95,-340.89 -844.85,-511.5 -1427.55,-511.5 -682.11,0 -1184.3,172.05 -1506.61,516.16 -322.43,344.1 -595.18,850.95 -818.4,1520.53 -210.82,700.69 -610.75,1050.89 -1199.71,1050.89 -347.32,0 -640.25,-122.36 -878.84,-367.34 -238.65,-244.91 -357.97,-509.95 -357.97,-795.18zm4538.37 10192.76c-378.26,0 -708.4,-122.53 -990.45,-367.38 -282.18,-244.81 -423.17,-587.35 -423.17,-1027.61 0,-390.62 136.29,-719.15 409.2,-985.8 272.74,-266.52 607.54,-399.89 1004.38,-399.89 390.62,0 719.15,133.37 985.8,399.89 266.48,266.65 399.89,595.18 399.89,985.8 0,434.05 -139.5,775.06 -418.51,1023 -279.02,247.94 -601.37,371.99 -967.14,371.99z"/>
  <g id="_105553374393088">
  </g>
  <g id="_105553374387104">
  </g>
  <g id="_105553374388416">
  </g>
  <g id="_105553374390496">
  </g>
  <g id="_105553374396128">
  </g>
  <g id="_105553374386240">
  </g>
  <g id="_105553374395968">
  </g>
  <g id="_105553374395808">
  </g>
  <g id="_105553374390208">
  </g>
  <g id="_105553374394272">
  </g>
  <g id="_105553374390944">
  </g>
  <g id="_105553374383776">
  </g>
  <g id="_105553374382336">
  </g>
  <g id="_105553374391104">
  </g>
  <g id="_105553374388160">
  </g>
 </g>
</svg>
