<svg height="511pt" viewBox="-22 0 511 511.99986" width="511pt" xmlns="http://www.w3.org/2000/svg"><path d="m357.429688 263.886719s-13.664063 97.980469-78.894532 183.996093c0 0 7.589844-53-61.667968-94.328124" fill="#dff6fc"/><path d="m255.640625 162.097656s-97.980469 13.664063-183.996094 78.894532c0 0 53-7.589844 94.328125 61.667968" fill="#dff6fc"/><path d="m330.433594 114.75c-24.292969 8.6875-49.289063 21.847656-69.230469 41.785156-58.464844 58.464844-95.230469 146.125-95.230469 146.125l25.445313 25.449219 25.449219 25.449219s87.660156-36.769532 146.128906-95.234375c19.9375-19.9375 33.09375-44.9375 41.78125-69.226563-16.5-6.140625-31.980469-15.835937-45.242188-29.101562-13.265625-13.265625-22.960937-28.742188-29.101562-45.246094zm0 0" fill="#b0aeed"/><path d="m330.433594 114.75c6.140625 16.503906 15.835937 31.980469 29.097656 45.246094 13.265625 13.261718 28.746094 22.960937 45.246094 29.097656 16.785156-46.933594 16.875-91.21875 16.875-91.21875s-44.285156.089844-91.21875 16.875zm0 0" fill="#dff6fc"/><path d="m129.308594 339.320312 36.660156-36.660156 50.894531 50.894532-36.660156 36.660156zm0 0" fill="#f9f9f9"/><path d="m86.332031 433.195312c33.300781-7.195312 93.875-42.980468 93.875-42.980468l-50.894531-50.894532s-35.78125 60.574219-42.980469 93.875zm0 0" fill="#ffcb7c"/><path d="m339.589844 179.9375c-11.996094-12-31.449219-12-43.445313 0-12 11.996094-12 31.449219 0 43.445312 11.996094 11.996094 31.449219 11.996094 43.445313 0 11.996094-11.996093 11.996094-31.449218 0-43.445312zm0 0" fill="#f9f9f9"/><path d="m295.511719 17.125c-9.425781-9.421875-24.707031-9.421875-34.128907 0-9.425781 9.425781-9.425781 24.707031 0 34.132812 9.421876 9.425782 24.703126 9.425782 34.128907 0 9.425781-9.425781 9.425781-24.707031 0-34.132812zm0 0" fill="#91d9b9"/><path d="m402.472656 375.714844c-9.425781-9.425782-24.707031-9.425782-34.132812 0-9.421875 9.425781-9.421875 24.707031 0 34.132812 9.425781 9.425782 24.707031 9.425782 34.132812 0 9.425782-9.425781 9.425782-24.707031 0-34.132812zm0 0" fill="#9593e6"/><path d="m452.195312 248.847656c-6.664062-6.664062-17.472656-6.664062-24.136718 0-6.664063 6.664063-6.664063 17.46875 0 24.132813 6.664062 6.664062 17.472656 6.664062 24.136718 0 6.664063-6.664063 6.664063-17.46875 0-24.132813zm0 0" fill="#f6838d"/><path d="m146.097656 105.199219c-6.664062-6.664063-17.46875-6.664063-24.132812 0-6.664063 6.664062-6.664063 17.472656 0 24.136719 6.664062 6.664062 17.46875 6.664062 24.132812 0 6.667969-6.664063 6.667969-17.472657 0-24.136719zm0 0" fill="#ffcb7c"/><path d="m369.417969 265.445312c18.648437-18.648437 33.5-43.195312 44.148437-72.957031 17.171875-48.019531 17.457032-92.710937 17.460938-94.59375.011718-5.386719-4.714844-10.089843-10.089844-10.089843-1.878906.003906-46.574219.289062-94.589844 17.464843-29.765625 10.644531-54.3125 25.496094-72.960937 44.144531-1.066407 1.066407-2.125 2.144532-3.175781 3.230469-18.34375 3.050781-106.128907 20.246094-185.347657 80.324219-8.078125 6.125-2.523437 19.4375 7.515625 17.996094.445313-.066406 43.460938-5.484375 80.101563 50.25l-30.984375 30.984375c-.589844.589843-1.125 1.28125-1.550782 2-1.492187 2.527343-36.695312 62.375-44.152343 96.871093-1.496094 6.933594 5 13.476563 11.972656 11.972657 34.496094-7.457031 94.339844-42.660157 96.867187-44.15625.71875-.421875 1.414063-.960938 2-1.550781l30.988282-30.984376c55.089844 36.191407 50.472656 78.335938 50.25 80.101563-1.441406 10.046875 11.886718 15.566406 17.992187 7.515625 60.078125-79.21875 77.273438-167.007812 80.324219-185.347656 1.085938-1.050782 2.164062-2.109375 3.230469-3.175782zm28.558593-89.875c-23.753906-11.351562-43.363281-30.957031-54.714843-54.714843 27.621093-8.558594 53.324219-11.445313 67.140625-12.417969-.964844 13.796875-3.839844 39.453125-12.425782 67.132812zm-73.792968-47.933593c4.648437 10.128906 10.5625 19.679687 17.546875 28.359375 6.246093 7.761718 13.339843 14.855468 21.101562 21.105468 8.671875 6.980469 18.242188 12.898438 28.363281 17.546876-9.273437 22.902343-21.363281 41.898437-36.019531 56.554687-47.570312 47.566406-116.089843 80.90625-136.769531 90.34375l-13.4375-13.4375 36.335938-36.339844c9.1875-9.1875-5.054688-23.429687-14.242188-14.242187l-36.339844 36.335937-13.4375-13.4375c9.421875-20.675781 42.710938-89.136719 90.34375-136.769531 14.65625-14.65625 33.652344-26.746094 56.554688-36.019531zm-122.257813 225.917969-22.414062 22.417968-36.652344-36.652344 22.417969-22.414062zm-103.378906-119.636719c48.90625-31.761719 99.019531-48.078125 129.28125-55.785157-30.933594 38.652344-53.21875 81.003907-64.191406 103.855469-22.398438-30.394531-46.753907-43.003906-65.089844-48.070312zm32.289063 121.867187 32.210937 32.210938c-14.578125 8.105468-40.59375 21.929687-62.246094 30.039062 8.105469-21.648437 21.929688-47.664062 30.035157-62.25zm154.078124 64.503906c-5.066406-18.335937-17.671874-42.695312-48.070312-65.09375 22.855469-10.972656 65.222656-33.265624 103.882812-64.214843-7.683593 30.238281-23.980468 80.320312-55.8125 129.308593zm0 0"/><path d="m317.175781 242.433594c10.445313 0 20.890625-3.976563 28.84375-11.929688 7.703125-7.707031 11.945313-17.949218 11.945313-28.84375 0-10.898437-4.242188-21.140625-11.945313-28.847656-15.90625-15.902344-41.785156-15.902344-57.691406 0-7.703125 7.707031-11.945313 17.949219-11.945313 28.847656 0 10.894532 4.242188 21.136719 11.945313 28.84375 7.953125 7.953125 18.398437 11.929688 28.847656 11.929688zm-14.605469-55.375c4.027344-4.027344 9.316407-6.039063 14.605469-6.039063 5.285157 0 10.574219 2.011719 14.601563 6.039063 3.898437 3.898437 6.046875 9.085937 6.046875 14.601562 0 5.511719-2.148438 10.699219-6.046875 14.601563-8.054688 8.050781-21.152344 8.050781-29.203125 0-3.902344-3.902344-6.050781-9.085938-6.050781-14.601563 0-5.519531 2.148437-10.703125 6.046874-14.601562zm0 0"/><path d="m277.75 68.394531c9.140625 0 17.730469-3.558593 24.1875-10.015625 6.460938-6.460937 10.019531-15.050781 10.019531-24.1875 0-9.136718-3.558593-17.726562-10.015625-24.1875-13.339844-13.335937-35.039062-13.339844-48.378906 0-13.335938 13.335938-13.335938 35.035156 0 48.371094 6.460938 6.460938 15.054688 10.019531 24.1875 10.019531zm-9.941406-44.148437c3.953125-3.953125 10.054687-5.179688 15.238281-3.082032 5.253906 2.125 8.769531 7.363282 8.769531 13.027344 0 3.753906-1.464844 7.285156-4.121094 9.941406-5.757812 5.757813-15.488281 5.324219-20.722656-.910156-4.617187-5.503906-4.246094-13.898437.835938-18.976562zm0 0"/><path d="m384.714844 358.574219c-9.136719 0-17.726563 3.558593-24.1875 10.019531-13.335938 13.335938-13.335938 35.039062 0 48.375 6.460937 6.460938 15.050781 10.019531 24.1875 10.019531 9.136718 0 17.726562-3.558593 24.1875-10.019531 6.460937-6.460938 10.019531-15.050781 10.019531-24.1875s-3.558594-17.726562-10.019531-24.1875c-6.460938-6.460938-15.050782-10.019531-24.1875-10.019531zm9.945312 44.152343c-2.65625 2.65625-6.1875 4.117188-9.945312 4.117188-3.757813 0-7.285156-1.460938-9.945313-4.117188-5.480469-5.484374-5.480469-14.40625 0-19.890624 2.65625-2.65625 6.1875-4.117188 9.945313-4.117188 3.757812 0 7.289062 1.464844 9.945312 4.117188 2.65625 2.65625 4.117188 6.191406 4.117188 9.945312 0 3.757812-1.460938 7.289062-4.117188 9.945312zm0 0"/><path d="m458.625 241.722656c-10.582031-10.578125-27.796875-10.578125-38.378906 0-10.578125 10.582032-10.578125 27.796875 0 38.378906 5.292968 5.292969 12.238281 7.9375 19.191406 7.9375 6.945312 0 13.898438-2.648437 19.1875-7.9375 10.582031-10.582031 10.582031-27.796874 0-38.378906zm-14.242188 24.136719c-2.582031 2.578125-6.867187 2.707031-9.59375.28125-2.726562-2.425781-3.109374-6.699219-.839843-9.5625 2.65625-3.359375 7.867187-3.511719 10.714843-.3125 2.425782 2.726563 2.296876 7.011719-.28125 9.59375zm0 0"/><path d="m133.335938 144.390625c6.949218 0 13.898437-2.644531 19.1875-7.933594 5.125-5.125 7.949218-11.941406 7.949218-19.1875 0-7.25-2.820312-14.066406-7.945312-19.191406-10.582032-10.578125-27.800782-10.578125-38.378906 0-5.125 5.125-7.949219 11.941406-7.949219 19.191406 0 7.246094 2.824219 14.0625 7.949219 19.1875 5.289062 5.289063 12.238281 7.933594 19.1875 7.933594zm-4.945313-32.070313c6.375-6.375 16.273437 3.507813 9.890625 9.894532-6.648438 6.230468-16.214844-3.570313-9.890625-9.894532zm0 0"/><path d="m222.402344 453.855469-12.96875 12.972656c-9.1875 9.183594 5.054687 23.425781 14.242187 14.242187l12.96875-12.96875c9.1875-9.1875-5.054687-23.429687-14.242187-14.246093zm0 0"/><path d="m155.277344 459.1875-12.285156 12.289062c-9.1875 9.183594 5.058593 23.429688 14.242187 14.242188l12.289063-12.289062c9.1875-9.183594-5.058594-23.429688-14.246094-14.242188zm0 0"/><path d="m15.753906 319.664062-12.285156 12.285157c-9.1875 9.1875 5.054688 23.429687 14.242188 14.246093l12.289062-12.289062c9.183594-9.1875-5.058594-23.429688-14.246094-14.242188zm0 0"/><path d="m190.695312 448.089844c2.578126 0 5.15625-.984375 7.121094-2.953125l25.9375-25.9375c9.1875-9.1875-5.054687-23.429688-14.242187-14.246094l-25.941407 25.941406c-6.121093 6.125-1.644531 17.195313 7.125 17.195313zm0 0"/><path d="m52.574219 311.332031 25.9375-25.941406c9.1875-9.1875-5.054688-23.429687-14.242188-14.242187l-25.941406 25.941406c-9.1875 9.183594 5.058594 23.429687 14.246094 14.242187zm0 0"/><path d="m86.113281 319.191406c-3.929687-3.933594-10.308593-3.933594-14.242187 0l-25.941406 25.941406c-9.183594 9.183594 5.058593 23.429688 14.246093 14.242188l25.9375-25.9375c3.933594-3.933594 3.933594-10.3125 0-14.246094zm0 0"/><path d="m197.851562 498.105469c-2.078124-5.074219-8.097656-7.554688-13.152343-5.449219-5.066407 2.109375-7.554688 8.070312-5.449219 13.152344 2.09375 5.058594 8.097656 7.546875 13.152344 5.4375 5.054687-2.105469 7.566406-8.066406 5.449218-13.140625zm0 0"/><path d="m253.707031 260.679688c2.082031 5.070312 8.097657 7.554687 13.15625 5.449218 5.0625-2.113281 7.542969-8.066406 5.445313-13.144531-2.089844-5.070313-8.089844-7.550781-13.152344-5.449219-5.058594 2.101563-7.558594 8.070313-5.449219 13.144532zm0 0"/></svg>