<?xml version="1.0" encoding="iso-8859-1"?>
<!-- Generator: Adobe Illustrator 19.0.0, SVG Export Plug-In . SVG Version: 6.00 Build 0)  -->
<svg version="1.1" id="Capa_1" xmlns="http://www.w3.org/2000/svg" xmlns:xlink="http://www.w3.org/1999/xlink" x="0px" y="0px"
	 viewBox="0 0 486.6 486.6" style="enable-background:new 0 0 486.6 486.6;" xml:space="preserve">
<path style="fill:#ED664C;" d="M243.3,10c128.8,0,233.3,104.5,233.3,233.3S372.1,476.6,243.3,476.6S10,372.1,10,243.3
	S114.5,10,243.3,10z M404,201.8c0-14.3-37.5-51.8-51.8-51.8c-28.6,0-51.8,23.2-51.8,51.8s23.2,51.8,51.8,51.8S404,230.4,404,201.8z
	 M186.3,201.8c0-28.6-23.2-51.8-51.8-51.8c-15.2,0-51.8,38.4-51.8,51.8c0,28.6,23.2,51.8,51.8,51.8S186.3,230.4,186.3,201.8z"/>
<g>
	<circle style="fill:#FFFFFF;" cx="362.5" cy="186.3" r="20.7"/>
	<circle style="fill:#FFFFFF;" cx="341.8" cy="222.6" r="10.4"/>
	<circle style="fill:#FFFFFF;" cx="144.8" cy="186.3" r="20.7"/>
	<circle style="fill:#FFFFFF;" cx="124.1" cy="222.6" r="10.4"/>
</g>
<path d="M352.2,253.7c28.6,0,51.8-23.2,51.8-51.8c0-14.3-37.5-51.8-51.8-51.8c-28.6,0-51.8,23.2-51.8,51.8
	C300.3,230.4,323.5,253.7,352.2,253.7z M362.5,165.5c11.5,0,20.7,9.3,20.7,20.7s-9.3,20.7-20.7,20.7s-20.7-9.3-20.7-20.7
	S351.1,165.5,362.5,165.5z M341.8,212.2c5.7,0,10.4,4.7,10.4,10.4s-4.7,10.4-10.4,10.4s-10.4-4.7-10.4-10.4S336.1,212.2,341.8,212.2
	z"/>
<path d="M134.4,253.7c28.6,0,51.8-23.2,51.8-51.8s-23.2-51.8-51.8-51.8c-15.2,0-51.8,38.4-51.8,51.8
	C82.6,230.4,105.8,253.7,134.4,253.7z M144.8,165.5c11.5,0,20.7,9.3,20.7,20.7s-9.3,20.7-20.7,20.7s-20.7-9.3-20.7-20.7
	S133.3,165.5,144.8,165.5z M124.1,212.2c5.7,0,10.4,4.7,10.4,10.4s-4.7,10.4-10.4,10.4s-10.4-4.7-10.4-10.4S118.4,212.2,124.1,212.2
	z"/>
<path d="M243.3,486.6c65,0,126.1-25.3,172-71.3s71.3-107,71.3-172s-25.3-126.1-71.3-172S308.3,0,243.3,0s-126.1,25.3-172,71.3
	S0,178.3,0,243.3s25.3,126.1,71.3,172S178.3,486.6,243.3,486.6z M243.3,20c123.1,0,223.3,100.2,223.3,223.3S366.4,466.6,243.3,466.6
	S20,366.4,20,243.3S120.2,20,243.3,20z"/>
<path d="M129.1,340.9l16,12c23.5-31.3,59.5-49.2,98.6-49.2c19.7,0,38.5,4.5,56,13.4c16.6,8.4,31.3,20.8,42.6,35.8l16-12
	c-13.1-17.4-30.3-31.8-49.5-41.6c-20.3-10.4-42.2-15.6-65.1-15.6s-44.8,5.2-65,15.6C159.3,309.1,142.2,323.5,129.1,340.9z"/>
<path d="M413.9,189.4l16.4-11.4c-16.1-23.2-36-43.4-59-60l-3-2.1l-11.5,16.4l2.9,2C380.9,149.5,399.1,168.1,413.9,189.4z"/>
<path d="M129.9,132.3l-11.4-16.4c-23.3,16.2-43.5,36-60,59.1l-2.1,3l16.4,11.5l2-2.9C89.9,165.4,108.4,147.1,129.9,132.3z"/>
<g>
</g>
<g>
</g>
<g>
</g>
<g>
</g>
<g>
</g>
<g>
</g>
<g>
</g>
<g>
</g>
<g>
</g>
<g>
</g>
<g>
</g>
<g>
</g>
<g>
</g>
<g>
</g>
<g>
</g>
</svg>
