<svg height="480pt" viewBox="0 -32 480 480" width="480pt" xmlns="http://www.w3.org/2000/svg"><path d="m448 360h-440v32c.027344 8.824219 7.175781 15.972656 16 16h432c8.824219-.027344 15.972656-7.175781 16-16v-32zm0 0" fill="#898890"/><path d="m416 56h-352c-17.671875 0-32 14.328125-32 32v272h416v-272c0-17.671875-14.328125-32-32-32zm0 0" fill="#5aaae7"/><path d="m280 48.878906v135.121094h-80v-135.839844l40-40.160156zm0 0" fill="#ff9811"/><path d="m256 64c.011719 6.734375-4.195312 12.753906-10.519531 15.0625-6.328125 2.304688-13.421875.402344-17.746094-4.757812-4.324219-5.164063-4.953125-12.480469-1.574219-18.304688h27.679688c1.410156 2.429688 2.15625 5.191406 2.160156 8zm0 0" fill="#e6e7e8"/><path d="m253.839844 56h-27.679688c2.863282-4.933594 8.136719-7.972656 13.839844-7.972656s10.976562 3.039062 13.839844 7.972656zm0 0" fill="#e6e7e8"/><g fill="#ee8700"><path d="m272 184-8 24h-48l-8-24zm0 0"/><path d="m296 120 16 64h-32v-64zm0 0"/><path d="m200 120v64h-32l16-64zm0 0"/></g><path d="m280 360-8 24h-64l-8-24zm0 0" fill="#787680"/><path d="m344 272c-2.785156.023438-5.542969.539062-8.152344 1.519531 0-.511719.152344-1 .152344-1.519531.027344-11.78125-8.523438-21.832031-20.15625-23.691406-11.636719-1.859375-22.890625 5.023437-26.539062 16.226562-1.746094-.34375-3.523438-.523437-5.304688-.535156-10.785156.019531-20.59375 6.25-25.199219 16h-37.601562c-4.605469-9.75-14.414063-15.980469-25.199219-16-1.78125.011719-3.558594.191406-5.304688.535156-3.648437-11.203125-14.902343-18.085937-26.539062-16.226562-11.632812 1.859375-20.183594 11.910156-20.15625 23.691406 0 .519531.121094 1.007812.152344 1.519531-2.609375-.980469-5.367188-1.496093-8.152344-1.519531-13.253906 0-24 10.746094-24 24s10.746094 24 24 24h208c13.253906 0 24-10.746094 24-24s-10.746094-24-24-24zm0 0" fill="#e6e7e8"/><path d="m240 232c13.253906 0 24 10.746094 24 24 0 13.28125-24 40-24 40s-24-26.71875-24-40c0-13.253906 10.746094-24 24-24zm0 0" fill="#ff5023"/><path d="m161.695312 188.921875c1.515626 1.941406 3.839844 3.078125 6.304688 3.078125h34.230469l6.175781 18.527344c1.089844 3.269531 4.148438 5.472656 7.59375 5.472656h48c3.441406-.003906 6.496094-2.207031 7.585938-5.472656l6.175781-18.527344h34.238281c2.464844 0 4.789062-1.136719 6.308594-3.078125 1.515625-1.941406 2.050781-4.476563 1.453125-6.867187l-16-64c-.894531-3.558594-4.09375-6.054688-7.761719-6.054688h-8v-63.144531c0-2.09375-.816406-4.101563-2.28125-5.597657l-40-40.867187c-1.507812-1.53125-3.566406-2.39453125-5.71875-2.390625-2.109375.113281-4.121094.941406-5.695312 2.351562l-40 40.136719c-1.496094 1.5-2.335938 3.53125-2.335938 5.648438v63.863281h-7.96875c-3.667969 0-6.867188 2.496094-7.761719 6.054688l-16 64c-.597656 2.390624-.058593 4.921874 1.457031 6.867187zm128.058594-60.921875 12 48h-13.753906v-48zm-31.523437 72h-36.460938l-2.671875-8h41.796875zm-50.230469-148.558594 31.953125-32.058594 32.046875 32.746094v123.871094h-24v-64h-16v64h-24zm-17.753906 76.558594h1.753906v48h-13.753906zm0 0"/><path d="m240 88c13.253906 0 24-10.746094 24-24s-10.746094-24-24-24-24 10.746094-24 24 10.746094 24 24 24zm0-32c4.417969 0 8 3.582031 8 8s-3.582031 8-8 8-8-3.582031-8-8 3.582031-8 8-8zm0 0"/><path d="m245.953125 301.34375c4.351563-4.847656 26.046875-29.816406 26.046875-45.34375 0-17.671875-14.328125-32-32-32s-32 14.328125-32 32c0 15.527344 21.695312 40.496094 26.046875 45.34375 1.519531 1.691406 3.683594 2.65625 5.953125 2.65625s4.433594-.964844 5.953125-2.65625zm-21.953125-45.34375c0-8.835938 7.164062-16 16-16s16 7.164062 16 16c0 5.097656-7.511719 17-16 27.609375-8.503906-10.65625-16-22.648437-16-27.609375zm0 0"/><path d="m312 240c-17.671875 0-32 14.328125-32 32h16c.042969-8.835938 7.242188-15.964844 16.078125-15.921875 8.839844.046875 15.964844 7.246094 15.921875 16.082031-.457031 2.832032.632812 5.691406 2.863281 7.496094s5.253907 2.277344 7.929688 1.238281c1.664062-.617187 3.429687-.917969 5.207031-.894531 8.835938 0 16 7.164062 16 16s-7.164062 16-16 16h-208c-8.835938 0-16-7.164062-16-16s7.164062-16 16-16c1.769531-.023438 3.527344.28125 5.183594.894531 2.703125 1.003907 5.738281.492188 7.964844-1.339843 2.226562-1.832032 3.3125-4.707032 2.851562-7.554688 0-8.835938 7.164062-16 16-16s16 7.164062 16 16h16c.015625-16.125-11.96875-29.746094-27.96875-31.777344-15.996094-2.03125-31.007812 8.160156-35.023438 23.777344-8.640624-.210938-17.007812 3.0625-23.214843 9.078125s-9.734375 14.277344-9.792969 22.921875c.03125 5.632812 1.570312 11.15625 4.449219 16h-36.449219v16h336v-16h-36.449219c2.878907-4.84375 4.417969-10.367188 4.449219-16-.027344-8.652344-3.550781-16.929688-9.761719-22.953125-6.214843-6.023437-14.59375-9.285156-23.246093-9.046875-3.667969-14.121094-16.402344-23.984375-30.992188-24zm0 0"/><path d="m336 128h16v32h-16zm0 0"/><path d="m336 176h16v16h-16zm0 0"/><path d="m368 152h16v48h-16zm0 0"/><path d="m368 216h16v16h-16zm0 0"/><path d="m128 128h16v32h-16zm0 0"/><path d="m128 176h16v16h-16zm0 0"/><path d="m96 152h16v48h-16zm0 0"/><path d="m96 216h16v16h-16zm0 0"/><path d="m472 352h-16v-264c-.027344-22.082031-17.917969-39.972656-40-40h-112v16h112c13.253906 0 24 10.746094 24 24v264h-400v-264c0-13.253906 10.746094-24 24-24h112v-16h-112c-22.082031.027344-39.972656 17.917969-40 40v264h-16c-4.417969 0-8 3.582031-8 8v32c0 13.253906 10.746094 24 24 24h432c13.253906 0 24-10.746094 24-24v-32c0-4.417969-3.582031-8-8-8zm-203.097656 16-2.671875 8h-52.460938l-2.671875-8zm195.097656 24c0 4.417969-3.582031 8-8 8h-432c-4.417969 0-8-3.582031-8-8v-24h178.230469l6.175781 18.527344c1.089844 3.269531 4.148438 5.472656 7.59375 5.472656h64c3.441406-.003906 6.496094-2.207031 7.585938-5.472656l6.175781-18.527344h178.238281zm0 0"/></svg>