<svg width="65" height="65" viewBox="0 0 65 65" fill="none" xmlns="http://www.w3.org/2000/svg">
<g clip-path="url(#clip0)">
<path d="M37.4172 59.5122C49.3788 57.3249 57.3025 45.8548 55.1151 33.8932C52.9278 21.9316 41.4578 14.0079 29.4961 16.1952C17.5345 18.3826 9.61083 29.8526 11.7982 41.8142C13.9855 53.7759 25.4555 61.6995 37.4172 59.5122Z" fill="#FF8571"/>
<path d="M29.4961 16.1951C41.4516 14.0089 52.9289 21.9375 55.1151 33.893C57.3013 45.8485 49.3726 57.3258 37.4171 59.512" fill="#ED5B3A"/>
<path d="M45.9868 19.7154C56.0294 26.653 58.5325 40.3411 51.5949 50.3838C44.6573 60.4264 30.9691 62.9295 20.9265 55.9919" fill="#890606"/>
<path d="M36.7043 55.6136C46.5129 53.82 53.0102 44.4146 51.2166 34.606C49.423 24.7975 40.0176 18.3001 30.209 20.0937C20.4005 21.8873 13.9031 31.2927 15.6967 41.1013C17.4903 50.9098 26.8958 57.4072 36.7043 55.6136Z" fill="#EEFCFF"/>
<path d="M30.2249 20.1802C40.0145 18.39 49.4423 24.9029 51.2324 34.6925C53.0226 44.4821 46.5097 53.9099 36.7201 55.7001" fill="#DEF0F9"/>
<path d="M33.7735 39.5865C34.7304 39.4115 35.3643 38.4939 35.1893 37.537C35.0143 36.58 34.0967 35.9462 33.1398 36.1211C32.1829 36.2961 31.549 37.2137 31.7239 38.1707C31.8989 39.1276 32.8165 39.7615 33.7735 39.5865Z" fill="#19D893"/>
<path d="M34.4477 36.419C35.2675 36.9853 35.4576 38.0249 34.8912 38.8447C34.3249 39.6645 33.2853 39.8546 32.4655 39.2883" fill="#04AF76"/>
<path d="M31.8461 26.5985C31.8778 26.7718 31.7362 26.9767 31.5629 27.0084L31.303 27.0559C31.1297 27.0876 30.9248 26.946 30.8931 26.7728L30.2277 23.1341C30.1961 22.9609 30.3376 22.7559 30.5109 22.7242L30.7708 22.6767C30.9441 22.645 31.149 22.7866 31.1807 22.9599L31.8461 26.5985Z" fill="#04AF76"/>
<path d="M36.6146 52.6754C36.6462 52.8487 36.5047 53.0536 36.3314 53.0853L36.0715 53.1328C35.8982 53.1645 35.6933 53.0229 35.6616 52.8497L34.9962 49.211C34.9645 49.0378 35.1061 48.8328 35.2794 48.8011L35.5393 48.7536C35.7126 48.7219 35.9175 48.8635 35.9492 49.0368L36.6146 52.6754Z" fill="#04AF76"/>
<path d="M44.7274 36.3298C44.5541 36.3615 44.3333 36.1333 44.3016 35.96C44.2699 35.7868 44.3957 35.4952 44.5689 35.4635L48.3809 34.7664C48.5541 34.7347 48.7749 34.963 48.8066 35.1362C48.8383 35.3095 48.7125 35.6011 48.5393 35.6328L44.7274 36.3298Z" fill="#04AF76"/>
<path d="M23.0922 39.9279C23.1239 40.1012 22.9823 40.3061 22.809 40.3378L19.0838 41.019C18.9105 41.0507 18.7055 40.9091 18.6738 40.7359L18.6422 40.5626C18.6105 40.3893 18.7521 40.1844 18.9253 40.1527L22.6506 39.4715C22.8239 39.4398 23.0288 39.5814 23.0605 39.7547L23.0922 39.9279Z" fill="#04AF76"/>
<path d="M40.2061 28.7407C40.1353 28.8431 39.8754 28.8907 39.7729 28.8199C39.6704 28.7491 39.6229 28.4892 39.6937 28.3867L41.8882 25.2099C41.959 25.1075 42.2189 25.0599 42.3214 25.1307C42.4239 25.2015 42.4714 25.4614 42.4006 25.5639L40.2061 28.7407Z" fill="#04AF76"/>
<path d="M25.1274 50.568C25.0566 50.6705 24.7967 50.718 24.6942 50.6473C24.5918 50.5765 24.5442 50.3166 24.615 50.2141L26.8096 47.0373C26.8804 46.9349 27.1403 46.8873 27.2427 46.9581C27.3452 47.0289 27.3927 47.2888 27.3219 47.3913L25.1274 50.568Z" fill="#04AF76"/>
<path d="M42.5695 44.6032C42.467 44.5324 42.4195 44.2725 42.4903 44.17C42.5611 44.0676 42.821 44.02 42.9235 44.0908L46.1002 46.2854C46.2027 46.3562 46.2502 46.6161 46.1794 46.7185C46.1087 46.821 45.8488 46.8685 45.7463 46.7977L42.5695 44.6032Z" fill="#04AF76"/>
<path d="M20.7421 29.5243C20.6397 29.4536 20.5921 29.1937 20.6629 29.0912C20.7337 28.9887 20.9936 28.9412 21.0961 29.012L24.2728 31.2065C24.3753 31.2773 24.4228 31.5372 24.3521 31.6397C24.2813 31.7422 24.0214 31.7897 23.9189 31.7189L20.7421 29.5243Z" fill="#04AF76"/>
<path d="M33.7156 36.8214C33.7631 37.0813 33.8265 37.4278 33.5666 37.4753C33.3067 37.5229 32.8968 37.2397 32.8492 36.9798L31.4868 29.5293C31.4393 29.2694 31.5492 28.8912 31.8091 28.8436C32.069 28.7961 32.3056 29.111 32.3531 29.3709L33.7156 36.8214Z" fill="#19D893"/>
<path d="M33.9848 38.2942C33.8115 38.3258 33.6932 38.1684 33.6457 37.9085C33.5982 37.6486 33.7397 37.4437 33.8264 37.4278L38.5046 36.5723C38.6779 36.5407 38.7962 36.6981 38.8437 36.958C38.8912 37.2179 38.7496 37.4228 38.663 37.4387L33.9848 38.2942Z" fill="#04AF76"/>
<path d="M34.049 8.2896C34.4768 10.6287 32.856 12.5367 30.5168 12.9644L27.398 13.5347C25.0589 13.9624 22.8678 12.7516 22.4401 10.4124C22.0123 8.07333 23.6331 6.16539 25.9722 5.73765L29.0911 5.16734C31.4302 4.7396 33.6213 5.95048 34.049 8.2896Z" fill="#ED5B3A"/>
<path d="M25.799 5.76929L29.091 5.16729C31.4302 4.73955 33.6213 5.95043 34.049 8.28955C34.4767 10.6287 32.7693 12.5524 30.4302 12.9802" fill="#890606"/>
</g>
<defs>
<clipPath id="clip0">
<rect width="55" height="55" fill="white" transform="translate(0.501892 10.3953) rotate(-10.3628)"/>
</clipPath>
</defs>
</svg>
