<?xml version="1.0" encoding="iso-8859-1"?>
<!-- Generator: Adobe Illustrator 21.0.0, SVG Export Plug-In . SVG Version: 6.00 Build 0)  -->
<svg xmlns="http://www.w3.org/2000/svg" xmlns:xlink="http://www.w3.org/1999/xlink" version="1.1" id="Capa_1" x="0px" y="0px" viewBox="0 0 512 512" style="enable-background:new 0 0 512 512;" xml:space="preserve" width="512" height="512">
<g>
	<path style="fill:#0064FF;" d="M497,319.2H15c-8.284,0-15-6.716-15-15V15C0,6.716,6.716,0,15,0h482c8.284,0,15,6.716,15,15v289.2   C512,312.484,505.284,319.2,497,319.2z"/>
	<path style="fill:#003280;" d="M497,0H256v319.2h241c8.284,0,15-6.716,15-15V15C512,6.716,505.284,0,497,0z"/>
	<rect x="30" y="30" style="fill:#FFFF99;" width="452" height="259.2"/>
	<rect x="256" y="30" style="fill:#FFFF00;" width="226" height="259.2"/>
	<polygon style="fill:#FF99FF;" points="482,289.2 482,30 385.601,30 126.4,289.2  "/>
	<polygon style="fill:#FF00FF;" points="256,159.601 256,289.2 482,289.2 482,30 385.601,30  "/>
	<path style="fill:#EDF6FF;" d="M464.867,512h-144.6c-25.989,0-47.134-21.145-47.134-47.134v-48.199   c0-25.989,21.145-47.134,47.134-47.134h144.6c25.989,0,47.133,21.145,47.133,47.134v48.199C512,490.855,490.856,512,464.867,512z"/>
	<path style="fill-rule:evenodd;clip-rule:evenodd;fill:#CDE3FF;" d="M464.867,369.533h-72.3V512h72.3   C490.856,512,512,490.855,512,464.866v-48.199C512,390.678,490.856,369.533,464.867,369.533z"/>
	<circle style="fill-rule:evenodd;clip-rule:evenodd;fill:#00AA00;" cx="474.642" cy="440.767" r="15"/>
	<circle style="fill-rule:evenodd;clip-rule:evenodd;fill:#003280;" cx="429.925" cy="440.767" r="15"/>
	<path style="fill:#0064FF;" d="M348.917,425.767h-1.066V424.7c0-8.284-6.716-15-15-15s-15,6.716-15,15v1.066h-1.066   c-8.284,0-15,6.716-15,15s6.716,15,15,15h1.066v1.066c0,8.284,6.716,15,15,15s15-6.716,15-15v-1.066h1.066c8.284,0,15-6.716,15-15   S357.201,425.767,348.917,425.767z"/>
	<path style="fill:#EDF6FF;" d="M191.733,512h-144.6C21.145,512,0,490.855,0,464.866v-48.199c0-25.989,21.145-47.134,47.134-47.134   h144.6c25.989,0,47.133,21.145,47.133,47.134v48.199C238.866,490.855,217.723,512,191.733,512z"/>
	<path style="fill-rule:evenodd;clip-rule:evenodd;fill:#CDE3FF;" d="M191.733,369.533h-72.3V512h72.3   c25.989,0,47.133-21.145,47.133-47.134v-48.199C238.866,390.678,217.723,369.533,191.733,369.533z"/>
	<circle style="fill-rule:evenodd;clip-rule:evenodd;fill:#00AA00;" cx="201.508" cy="440.767" r="15"/>
	<circle style="fill-rule:evenodd;clip-rule:evenodd;fill:#003280;" cx="156.791" cy="440.767" r="15"/>
	<path style="fill:#0064FF;" d="M75.783,425.767h-1.066V424.7c0-8.284-6.716-15-15-15s-15,6.716-15,15v1.066H43.65   c-8.284,0-15,6.716-15,15s6.716,15,15,15h1.066v1.066c0,8.284,6.716,15,15,15s15-6.716,15-15v-1.066h1.066c8.284,0,15-6.716,15-15   S84.067,425.767,75.783,425.767z"/>
	<path style="fill:#0064FF;" d="M203.783,214.767L203.783,214.767c-4.722,0-9.167-2.223-12-6l-24.1-32.133c-1.947-2.597-3-5.755-3-9   v-48.2c0-8.284,6.716-15,15-15s15,6.716,15,15v43.2l9.1,12.133l9.101-12.133v-43.2c0-8.284,6.716-15,15-15s15,6.716,15,15v48.2   c0,3.246-1.053,6.403-3,9l-24.101,32.133C212.95,212.544,208.504,214.767,203.783,214.767z"/>
	<path style="fill:#003280;" d="M315.184,214.767h-36.15c-8.284,0-15-6.716-15-15s6.716-15,15-15h36.15   c2.739,0,5.083-2.203,5.083-5.083c0-2.804-2.28-5.084-5.083-5.084h-24.1c-19.346,0-35.084-15.738-35.084-35.083   c0-19.385,15.68-35.083,35.084-35.083h36.149c8.284,0,15,6.716,15,15s-6.716,15-15,15h-36.149c-2.793,0-5.084,2.251-5.084,5.083   c0,2.803,2.28,5.083,5.084,5.083h24.1c19.345,0,35.083,15.738,35.083,35.084C350.267,199.071,334.588,214.767,315.184,214.767z"/>
</g>















</svg>
